<svg width="60" height="60" viewBox="0 0 60 60" fill="none" xmlns="http://www.w3.org/2000/svg">
<path d="M46.6667 0H13.3333C5.96952 0 0 5.96952 0 13.3333V46.6667C0 54.0305 5.96952 60 13.3333 60H46.6667C54.0305 60 60 54.0305 60 46.6667V13.3333C60 5.96952 54.0305 0 46.6667 0Z" fill="#F4F7FF"/>
<path d="M15.9108 41.4205H44.6975C46.2873 41.4205 47.5762 40.1316 47.5762 38.5417V18.3911C47.5762 16.8013 46.2873 15.5125 44.6975 15.5125H15.9108C14.3209 15.5125 13.0321 16.8013 13.0321 18.3911V38.5417C13.0321 40.1316 14.3209 41.4205 15.9108 41.4205Z" stroke="#1476FF" stroke-width="3.59339" stroke-linecap="round" stroke-linejoin="round"/>
<path d="M36.0616 47.1777H24.5469" stroke="#1476FF" stroke-width="3.59339" stroke-linecap="round" stroke-linejoin="round"/>
</svg>
